# AST/ASF file generated using VICON BodyLanguage
# -----------------------------------------------
:version 1.10
:name VICON
:units
  mass 1.0
  length 0.45
  angle deg
:documentation
   .ast/.asf automatically generated from VICON data using
   VICON BodyBuilder and BodyLanguage model FoxedUp or BRILLIANT.MOD
:root
   order TX TY TZ RX RY RZ
   axis XYZ
   position 0 0 0  
   orientation 0 0 0 
:bonedata
  begin
     id 1 
     name lhipjoint
     direction 0.567725 -0.736092 0.368589 
     length 2.42353 
     axis 0 0 0  XYZ
  end
  begin
     id 2 
     name lfemur
     direction 0.34202 -0.939693 0  
     length 7.24894  
     axis 0 0 20  XYZ
    dof rx ry rz
    limits (-160.0 20.0)
           (-70.0 70.0)
           (-60.0 70.0)
  end
  begin
     id 3 
     name ltibia
     direction 0.34202 -0.939693 0   
     length 7.6997   
     axis 0 0 20   XYZ
    dof rx
    limits (-10.0 170.0)
  end
  begin
     id 4 
     name lfoot
     direction 0.100767 -0.276854 0.955614   
     length 2.37556   
     axis -90 7.62852e-016 20   XYZ
    dof rx rz
    limits (-45.0 90.0)
           (-70.0 20.0)
  end
  begin
     id 5 
     name ltoes
     direction 1.53592e-011 -4.21894e-011 1   
     length 1.18363   
     axis -90 7.62852e-016 20   XYZ
    dof rx
    limits (-90.0 20.0)
  end
  begin
     id 6 
     name rhipjoint
     direction -0.556459 -0.742938 0.372017   
     length 2.4012  
     axis 0 0 0  XYZ 
  end
  begin
     id 7 
     name rfemur
     direction -0.34202 -0.939693 0   
     length 7.5119   
     axis 0 0 -20   XYZ
    dof rx ry rz
    limits (-160.0 20.0)
           (-70.0 70.0)
           (-70.0 60.0)
  end
  begin
     id 8 
     name rtibia
     direction -0.34202 -0.939693 0   
     length 7.50155   
     axis 0 0 -20   XYZ
    dof rx
    limits (-10.0 170.0)
 end
 begin
     id 9 
     name rfoot
     direction -0.118427 -0.325376 0.938139   
     length 2.32487  
     axis -90 -7.62852e-016 -20   XYZ
    dof rx rz
    limits (-45.0 90.0)
           (-20.0 70.0)
  end
  begin
     id 10 
     name rtoes
     direction -1.53525e-011 -4.21868e-011 1   
     length 1.15233   
     axis -90 -7.62852e-016 -20   XYZ
    dof rx
    limits (-90.0 20.0)
  end
  begin
     id 11 
     name lowerback
     direction 0.0287568 0.999577 -0.00434502   
     length 2.15243   
     axis 0 0 0   XYZ
    dof rx ry rz
    limits (-20.0 45.0)
           (-30.0 30.0)
           (-30.0 30.0)
  end
  begin
     id 12 
     name upperback
     direction 0.0294009 0.99956 0.00404628   
     length 2.15427   
     axis 0 0 0   XYZ
    dof rx ry rz
    limits (-20.0 45.0)
           (-30.0 30.0)
           (-30.0 30.0)
  end
  begin
     id 13 
     name thorax
     direction 0.0151014 0.999868 0.0059419   
     length 2.14898   
     axis 0 0 0   XYZ
    dof rx ry rz
    limits (-20.0 45.0)
           (-30.0 30.0)
           (-30.0 30.0)
  end
  begin
     id 14 
     name lowerneck
     direction -0.0249197 0.989906 0.139515   
     length 1.6861   
     axis 0 0 0   XYZ
    dof rx ry rz
    limits (-20.0 45.0)
           (-30.0 30.0)
           (-30.0 30.0)
  end
  begin
     id 15 
     name upperneck
     direction 0.0438463 0.988795 -0.142693   
     length 1.71276   
     axis 0 0 0   XYZ
    dof rx ry rz
    limits (-20.0 45.0)
           (-30.0 30.0)
           (-30.0 30.0)
  end
  begin
     id 16
     name head
     direction 0.0148499 0.997845 -0.0639186  
     length 1.7209  
     axis 0 0 0   XYZ
    dof rx ry rz
    limits (-20.0 45.0)
           (-30.0 30.0)
           (-30.0 30.0)
  end
  begin
     id 17 
     name lclavicle
     direction 0.940298 0.323464 -0.105876  
     length 3.9048  
     axis 0 0 0   XYZ
    dof ry rz
    limits (-20.0 10.0)
           (0.0 20.0)
  end
  begin
     id 18 
     name lhumerus
     direction 1 -4.48954e-011 -4.9675e-028   
     length 4.6851   
     axis 180 -30 -90   XYZ
    dof rx ry rz
    limits (-60.0 90.0)
           (-90.0 90.0)
           (-90.0 90.0)
  end
  begin
     id 19
     name lradius
     direction 1 -4.48992e-011 -1.03359e-026   
     length 3.39626   
     axis 180 -30 -90   XYZ
    dof rx
    limits (-10.0 170.0)
  end
  begin
     id 20
     name lwrist
     direction 1 -4.48906e-011 -1.67336e-026   
     length 1.69813   
     axis 9.90442e-015 90 90   XYZ
    dof ry
    limits (-180.0 0.0)
 end
  begin
     id 21 
     name lhand
     direction 1 -4.49006e-011 -3.34673e-026   
     length 0.486078   
     axis 2.1355e-014 90 90   XYZ
    dof rx rz
    limits (-90.0 90.0)
           (-45.0 45.0)
  end
  begin
     id 22 
     name lfingers
     direction 1 -4.48992e-011 -6.69345e-026   
     length 0.391889   
     axis 4.27099e-014 90 90   XYZ
    dof rx
    limits (0.0 90.0)
  end
  begin
     id 23
     name lthumb
     direction 0.707107 -6.34926e-011 0.707107   
     length 0.562676   
     axis -90 45 2.85299e-015   XYZ
    dof rx rz
    limits (-45.0 45.0)
           (-45.0 45.0)
  end
  begin
     id 24 
     name rclavicle
     direction -0.882459 0.414895 -0.221648   
     length 3.44646  
     axis 0 0 0   XYZ 
    dof ry rz
    limits (-10.0 20.0)
           (-20.0 0.0)
  end
  begin
     id 25 
     name rhumerus
     direction -1 -4.48962e-011 -2.37984e-027  
     length 5.55576   
     axis 180 30 90   XYZ
    dof rx ry rz
    limits (-90.0 60.0)
           (-90.0 90.0)
           (-90.0 90.0)
  end
  begin
     id 26 
     name rradius
     direction -1 -4.48982e-011 -6.86791e-027   
     length 3.32774   
     axis 180 30 90   XYZ
    dof rx
    limits (-10.0 170.0)
  end
  begin
     id 27 
     name rwrist
     direction -1 -4.48961e-011 -1.67336e-026   
     length 1.66387   
     axis 9.90442e-015 -90 -90   XYZ
    dof ry
    limits (-180.0 0.0)
  end
  begin
     id 28
     name rhand
     direction -1 -4.4897e-011 -3.34673e-026   
     length 0.507628   
     axis 2.1355e-014 -90 -90   XYZ
    dof rx rz
    limits (-90.0 90.0)
           (-45.0 45.0)
  end
  begin
     id 29
     name rfingers
     direction -1 -4.48854e-011 -6.69345e-026   
     length 0.409263   
     axis 4.27099e-014 -90 -90   XYZ
    dof rx
    limits (0.0 90.0)
  end
  begin
     id 30
     name rthumb
     direction -0.707107 -6.34913e-011 0.707107   
     length 0.587622   
     axis -90 -45 -2.85299e-015   XYZ
    dof rx rz
    limits (-45.0 45.0)
           (-45.0 45.0)
  end
:hierarchy
  begin
    root lhipjoint rhipjoint lowerback
    lhipjoint lfemur
    lfemur ltibia
    ltibia lfoot
    lfoot ltoes
    rhipjoint rfemur
    rfemur rtibia
    rtibia rfoot
    rfoot rtoes
    lowerback upperback
    upperback thorax
    thorax lowerneck lclavicle rclavicle
    lowerneck upperneck
    upperneck head
    lclavicle lhumerus
    lhumerus lradius
    lradius lwrist
    lwrist lhand lthumb
    lhand lfingers
    rclavicle rhumerus
    rhumerus rradius
    rradius rwrist
    rwrist rhand rthumb
    rhand rfingers
  end

#!OML:ASF E:\motion texture\Top Level 1\Subject 1\Session 1\male.ASF
:FULLY-SPECIFIED
:DEGREES
102
root 42.7219 17.8791 6.23501 126.627 -83.9591 -119.16
lowerback -3.01888 -0.443805 3.73124
upperback -2.55606 -0.78097 4.29539
thorax -0.922426 -0.464371 2.30908
lowerneck -16.2103 -3.30094 -7.36097
upperneck 11.9992 -3.81464 6.57419
head 6.57849 -1.63716 2.92327
rclavicle 3.76448e-015 -3.18055e-014
rhumerus -28.8736 1.49584 -78.4063
rradius 43.5065
rwrist -22.6384
rhand -8.28356 -45.792
rfingers 7.12502
rthumb 17.636 -75.0122
lclavicle 3.76448e-015 -3.18055e-014
lhumerus -28.4443 -29.6249 98.3912
lradius 87.8216
lwrist -9.53405
lhand -25.6125 23.3744
lfingers 7.12502
lthumb 0.919971 53.3521
rfemur -12.3043 3.12848 25.5229
rtibia 16.1178
rfoot -7.53589 -9.27863
rtoes 12.008
lfemur -10.7759 -2.37289 -11.9502
ltibia 12.2382
lfoot -6.76724 8.75245
ltoes 6.47809
103
root 42.716 17.8785 6.23292 128.553 -83.89 -121.044
lowerback -3.01664 -0.422244 3.7781
upperback -2.54636 -0.753975 4.29216
thorax -0.914714 -0.451595 2.28003
lowerneck -16.2299 -3.24423 -7.3139
upperneck 11.8023 -3.72527 6.50105
head 6.50966 -1.59706 2.90029
rclavicle -2.65502e-014 2.62396e-014
rhumerus -28.4081 0.973035 -78.8991
rradius 43.625
rwrist -22.943
rhand -9.00386 -46.5493
rfingers 7.12502
rthumb 16.9427 -75.8303
lclavicle -2.65502e-014 2.62396e-014
lhumerus -29.0672 -27.646 97.9458
lradius 85.7875
lwrist -9.92474
lhand -25.636 23.8628
lfingers 7.12502
lthumb 0.897314 53.8406
rfemur -12.3678 3.23867 25.4829
rtibia 16.1657
rfoot -7.53941 -9.1807
rtoes 12.0367
lfemur -10.7494 -2.31221 -11.9952
ltibia 12.2084
lfoot -6.80429 8.89293
ltoes 6.43942
104
root 42.71 17.8779 6.23074 130.346 -83.8217 -122.795
lowerback -3.01381 -0.402732 3.82319
upperback -2.54104 -0.729537 4.29156
thorax -0.911735 -0.440176 2.25471
lowerneck -16.2352 -3.18877 -7.27048
upperneck 11.607 -3.63845 6.4285
head 6.43941 -1.55855 2.87791
rclavicle 1.09083e-014 -1.51076e-014
rhumerus -27.9735 0.519741 -79.4029
rradius 43.7388
rwrist -23.2493
rhand -9.72549 -47.3107
rfingers 7.12502
rthumb 16.248 -76.6499
lclavicle 1.09083e-014 -1.51076e-014
lhumerus -29.6623 -25.705 97.4687
lradius 83.7028
lwrist -10.3191
lhand -25.6321 24.3721
lfingers 7.12502
lthumb 0.901036 54.3499
rfemur -12.4297 3.34495 25.4419
rtibia 16.2129
rfoot -7.54391 -9.08772
rtoes 12.0748
lfemur -10.7252 -2.25531 -12.0414
ltibia 12.1796
lfoot -6.83937 9.02626
ltoes 6.39916
105
root 42.7038 17.8774 6.22845 131.994 -83.7554 -124.402
lowerback -3.01025 -0.384215 3.86845
upperback -2.53591 -0.706393 4.29228
thorax -0.909288 -0.429413 2.23065
lowerneck -16.2445 -3.13664 -7.22874
upperneck 11.4184 -3.55659 6.3582
head 6.37259 -1.52226 2.85601
rclavicle 4.31114e-015 -4.21423e-014
rhumerus -27.5614 0.127179 -79.9132
rradius 43.8447
rwrist -23.5553
rhand -10.4428 -48.0786
rfingers 7.12502
rthumb 15.5572 -77.4728
lclavicle 4.31114e-015 -4.21423e-014
lhumerus -30.216 -23.8115 96.9591
lradius 81.5713
lwrist -10.7117
lhand -25.5777 24.9119
lfingers 7.12502
lthumb 0.95366 54.8895
rfemur -12.4897 3.44629 25.4013
rtibia 16.2593
rfoot -7.54961 -9.00036
rtoes 12.1206
lfemur -10.7036 -2.20263 -12.0875
ltibia 12.1518
lfoot -6.8723 9.15143
ltoes 6.35969
106
root 42.6975 17.8769 6.22604 133.505 -83.6938 -125.871
lowerback -3.00641 -0.366617 3.91261
upperback -2.53035 -0.68444 4.29369
thorax -0.906487 -0.419211 2.20789
lowerneck -16.2589 -3.08821 -7.18948
upperneck 11.2364 -3.48034 6.2927
head 6.30943 -1.48831 2.83548
rclavicle -1.00386e-014 1.35174e-014
rhumerus -27.1712 -0.207407 -80.426
rradius 43.9406
rwrist -23.8602
rhand -11.1522 -48.8551
rfingers 7.12502
rthumb 14.8739 -78.3012
lclavicle -1.00386e-014 1.35174e-014
lhumerus -30.7328 -21.9731 96.4232
lradius 79.3981
lwrist -11.1072
lhand -25.4783 25.4583
lfingers 7.12502
lthumb 1.04962 55.4355
rfemur -12.548 3.54269 25.3595
rtibia 16.3056
rfoot -7.55733 -8.91987
rtoes 12.174
lfemur -10.6846 -2.15464 -12.1347
ltibia 12.1255
lfoot -6.90369 9.2687
ltoes 6.31632
107
root 42.691 17.8764 6.22354 134.864 -83.6384 -127.189
lowerback -3.00583 -0.350061 3.95692
upperback -2.5206 -0.664278 4.29587
thorax -0.89749 -0.40979 2.18572
lowerneck -16.2847 -3.04477 -7.15101
upperneck 11.0598 -3.41093 6.23001
head 6.25059 -1.45729 2.81522
rclavicle 1.24862e-014 1.51076e-014
rhumerus -26.7961 -0.488004 -80.9377
rradius 44.0239
rwrist -24.161
rhand -11.8479 -49.6358
rfingers 7.12502
rthumb 14.2036 -79.1302
lclavicle 1.24862e-014 1.51076e-014
lhumerus -31.2072 -20.1956 95.8634
lradius 77.191
lwrist -11.4925
lhand -25.3301 26.0133
lfingers 7.12502
lthumb 1.19273 55.9897
rfemur -12.6042 3.6325 25.3181
rtibia 16.351
rfoot -7.56648 -8.84689
rtoes 12.2349
lfemur -10.6685 -2.11176 -12.1819
ltibia 12.1005
lfoot -6.9328 9.37551
ltoes 6.27148
108
root 42.6844 17.8759 6.22092 136.088 -83.5905 -128.372
lowerback -3.01365 -0.335718 4.00151
upperback -2.50601 -0.64787 4.29811
thorax -0.87874 -0.402088 2.16325
lowerneck -16.3103 -3.00468 -7.11489
upperneck 10.8828 -3.34661 6.17198
head 6.19216 -1.42847 2.79632
rclavicle -4.11236e-015 8.34896e-014
rhumerus -26.4364 -0.713507 -81.4478
rradius 44.0926
rwrist -24.4586
rhand -12.5282 -50.4284
rfingers 7.12502
rthumb 13.5479 -79.9677
lclavicle -4.11236e-015 8.34896e-014
lhumerus -31.6413 -18.479 95.284
lradius 74.9539
lwrist -11.8688
lhand -25.132 26.5578
lfingers 7.12502
lthumb 1.38405 56.5331
rfemur -12.6583 3.71671 25.2764
rtibia 16.396
rfoot -7.57728 -8.78204
rtoes 12.3024
lfemur -10.6552 -2.07323 -12.2296
ltibia 12.0769
lfoot -6.96039 9.47161
ltoes 6.22441
109
root 42.6776 17.8755 6.21816 137.173 -83.5512 -129.416
lowerback -3.02035 -0.324486 4.04594
upperback -2.49377 -0.63546 4.30149
thorax -0.862971 -0.396429 2.14201
lowerneck -16.3302 -2.96637 -7.08328
upperneck 10.7089 -3.28551 6.12011
head 6.13434 -1.40103 2.77986
rclavicle -9.44227e-015 4.13472e-014
rhumerus -26.1039 -0.881667 -81.9527
rradius 44.1469
rwrist -24.7519
rhand -13.1864 -51.2293
rfingers 7.12502
rthumb 12.9135 -80.8097
lclavicle -9.44227e-015 4.13472e-014
lhumerus -32.0492 -16.8218 94.6939
lradius 72.6956
lwrist -12.2248
lhand -24.8895 27.0978
lfingers 7.12502
lthumb 1.61825 57.0714
rfemur -12.7107 3.79497 25.2349
rtibia 16.441
rfoot -7.59028 -8.72607
rtoes 12.3763
lfemur -10.6447 -2.03921 -12.2771
ltibia 12.0534
lfoot -6.98449 9.55676
ltoes 6.17592
110
root 42.6707 17.8751 6.21527 138.125 -83.5215 -130.327
lowerback -3.02525 -0.315754 4.09062
upperback -2.48273 -0.626205 4.30529
thorax -0.84941 -0.392369 2.12103
lowerneck -16.3509 -2.93129 -7.05549
upperneck 10.5406 -3.22944 6.07525
head 6.07907 -1.37563 2.7658
rclavicle -8.19987e-016 -2.94201e-014
rhumerus -25.796 -0.997817 -82.4498
rradius 44.1852
rwrist -25.0438
rhand -13.8138 -52.0579
rfingers 7.12502
rthumb 12.3087 -81.6756
lclavicle -8.19987e-016 -2.94201e-014
lhumerus -32.4282 -15.2274 94.0961
lradius 70.419
lwrist -12.5683
lhand -24.5912 27.6165
lfingers 7.12502
lthumb 1.90643 57.5877
rfemur -12.761 3.86709 25.1938
rtibia 16.4854
rfoot -7.60564 -8.6797
rtoes 12.4554
lfemur -10.6371 -2.01003 -12.3243
ltibia 12.0309
lfoot -7.00681 9.62972
ltoes 6.12721
111
root 42.6636 17.8747 6.21225 138.938 -83.5029 -131.099
lowerback -3.02978 -0.308518 4.13738
upperback -2.46934 -0.618995 4.30763
thorax -0.83365 -0.389272 2.09732
lowerneck -16.3844 -2.90165 -7.02768
upperneck 10.3795 -3.18122 6.03566
head 6.0289 -1.35346 2.75259
rclavicle 2.06239e-015 3.4191e-014
rhumerus -25.5056 -1.07286 -82.9372
rradius 44.206
rwrist -25.3279
rhand -14.4239 -52.8704
rfingers 7.12502
rthumb 11.7203 -82.5225
lclavicle 2.06239e-015 3.4191e-014
lhumerus -32.7698 -13.7014 93.4903
lradius 68.1274
lwrist -12.9048
lhand -24.2566 28.1107
lfingers 7.12502
lthumb 2.22957 58.0788
rfemur -12.8093 3.93143 25.1535
rtibia 16.5293
rfoot -7.62338 -8.64258
rtoes 12.5388
lfemur -10.6326 -1.98615 -12.3708
ltibia 12.0093
lfoot -7.02648 9.69025
ltoes 6.07679
